<svg xmlns="http://www.w3.org/2000/svg" width="581.21" height="81.55" viewBox="0 0 581.21 81.55"><title>mobile-logo</title><g id="3aff663b-a881-4a33-8c19-8a03fc6eafd7" data-name="Layer 2"><g id="789b8f2f-1eff-4b1f-832c-ab63c85adb4a" data-name="Layer 1"><path d="M38.51,36.75,33.35,47.3c-3.5,6.22-8.41,13.86-15.95,15.75-2.92,1-5.49.1-8.31-.1L0,77.83a7.11,7.11,0,0,0,2.58,1.7c16,6.1,22.44-.46,38.19-36.05l14.88,31.7H75.46L66.1,53.79l5.3-11.06L86,74.7l19,.12L71.81,1.88,56.53,9.48l12,27.22-5.25,10.7L41.3,0,25.2,8.2Z" style="fill:#fff"/><path d="M107.32,34.75h4l13.4,32.55,13.4-32.55h4L124.69,76.9Z" style="fill:#fff"/><path d="M175.38,75h-4l-3.81-9.17H148.36L144.61,75h-4L158,32.82ZM149.86,62.2h16.3L158,42.42Z" style="fill:#fff"/><path d="M212.55,42.58a17.66,17.66,0,0,0-12.39-5.2,17.48,17.48,0,0,0,0,35,18,18,0,0,0,12.39-5.09l2.52,2.52a21.07,21.07,0,1,1,0-29.7Z" style="fill:#fff"/><path d="M255,75h-4L247.2,65.8H228L224.2,75h-4l17.37-42.14ZM229.46,62.2h16.3l-8.15-19.78Z" style="fill:#fff"/><path d="M272.53,38.4V75h-3.65V38.4H255.21V34.75h31V38.4Z" style="fill:#fff"/><path d="M296.67,34.75h3.65V75h-3.65Z" style="fill:#fff"/><path d="M330.71,75.88a21,21,0,1,1,21-21A21,21,0,0,1,330.71,75.88Zm0-38.5A17.48,17.48,0,1,0,348,54.86,17.37,17.37,0,0,0,330.71,37.38Z" style="fill:#fff"/><path d="M363.7,43.12V75h-3.65V32.82l27.4,33.78V34.75h3.65V76.9Z" style="fill:#fff"/><path d="M451.59,42.58a17.66,17.66,0,0,0-12.39-5.2,17.48,17.48,0,0,0,0,35,18,18,0,0,0,12.39-5.09l2.52,2.52a21.07,21.07,0,1,1,0-29.7Z" style="fill:#fff"/><path d="M492.34,75h-27.4V34.75h3.65V71.32h23.75Z" style="fill:#fff"/><path d="M496.33,60.33V34.75H500V60.33a11.88,11.88,0,1,0,23.75,0V34.75h3.65V60.33a15.52,15.52,0,1,1-31,0Z" style="fill:#fff"/><path d="M556.87,75H538.11V34.75H556a10.53,10.53,0,0,1,10.51,10.51,9.63,9.63,0,0,1-4.88,8.31,10.89,10.89,0,0,1,6.7,10A11.4,11.4,0,0,1,556.87,75ZM556,52.13a6.86,6.86,0,0,0,0-13.73H541.75V52.13Zm.91,3.65H541.75V71.32h15.12a7.78,7.78,0,0,0,0-15.55Z" style="fill:#fff"/><path d="M109.24,6.7h2.92l4.61,7.85,4.54-7.85h2.92l.8,16.62H122l-.55-11.51-4,6.78h-1.47l-4-6.6-.55,11.34h-2.94Z" style="fill:#fff"/><path d="M140.47,6.7h3.24L150,23.32h-3.49l-1.45-4.21H138.9l-1.45,4.21h-3.29Zm3.71,9.82L142,10.06l-2.22,6.45Z" style="fill:#fff"/><path d="M159.36,6.7h5.51a6.73,6.73,0,0,1,2.67.47,5.1,5.1,0,0,1,1.77,1.21,4.74,4.74,0,0,1,1,1.61,5,5,0,0,1,.31,1.67,5.54,5.54,0,0,1-.69,2.78,4.87,4.87,0,0,1-2.11,1.93l3.84,7h-3.54l-3.36-6.55h-2.37v6.55h-3Zm5.53,7.48a2.43,2.43,0,0,0,1.86-.7,2.38,2.38,0,0,0,.66-1.69,2.32,2.32,0,0,0-.7-1.74,2.51,2.51,0,0,0-1.82-.67h-2.52v4.81Z" style="fill:#fff"/><path d="M181.44,6.7h5.51a6.73,6.73,0,0,1,2.67.47,5.1,5.1,0,0,1,1.77,1.21,4.74,4.74,0,0,1,1,1.61,5,5,0,0,1,.31,1.67,5.54,5.54,0,0,1-.68,2.78,4.87,4.87,0,0,1-2.11,1.93l3.84,7h-3.54l-3.36-6.55h-2.37v6.55h-3ZM187,14.17a2.43,2.43,0,0,0,1.86-.7,2.38,2.38,0,0,0,.66-1.69,2.32,2.32,0,0,0-.7-1.74A2.51,2.51,0,0,0,187,9.36h-2.52v4.81Z" style="fill:#fff"/><path d="M203.52,6.7h3.14V23.32h-3.14Z" style="fill:#fff"/><path d="M225.63,23.77a8.37,8.37,0,0,1-3.39-.69,8.62,8.62,0,0,1-2.74-1.88,8.89,8.89,0,0,1-1.84-2.79,9,9,0,0,1,0-6.83,8.84,8.84,0,0,1,1.83-2.78,8.55,8.55,0,0,1,6.14-2.55,8.38,8.38,0,0,1,3.39.69,8.85,8.85,0,0,1,4.59,11.48,8.88,8.88,0,0,1-1.84,2.79A8.63,8.63,0,0,1,229,23.08,8.37,8.37,0,0,1,225.63,23.77Zm0-3A5.06,5.06,0,0,0,229.54,19a5.75,5.75,0,0,0,1.07-1.88,7,7,0,0,0,0-4.5,5.63,5.63,0,0,0-1.07-1.86,5,5,0,0,0-1.69-1.26,5.6,5.6,0,0,0-4.45,0,5.06,5.06,0,0,0-1.68,1.26,5.63,5.63,0,0,0-1.07,1.86,7,7,0,0,0,0,4.5A5.75,5.75,0,0,0,221.71,19a5,5,0,0,0,3.91,1.76Z" style="fill:#fff"/><path d="M247.68,9.46H242V6.7h14.41V9.46h-5.63V23.32h-3.14Z" style="fill:#fff"/><path d="M269.84,9.46H264.2V6.7h14.41V9.46H273V23.32h-3.14Z" style="fill:#fff"/><path d="M579.63,44.61A5.39,5.39,0,0,1,572,37a5.39,5.39,0,0,1,7.61,7.63Zm-7.09-7.1a4.49,4.49,0,0,0-1.35,3.28,4.54,4.54,0,0,0,1.34,3.3,4.63,4.63,0,0,0,6.56,0,4.69,4.69,0,0,0,0-6.59,4.62,4.62,0,0,0-6.56,0Zm3.17.3a4.52,4.52,0,0,1,1.62.21,1.47,1.47,0,0,1,.92,1.5,1.29,1.29,0,0,1-.58,1.17,2.25,2.25,0,0,1-.86.29,1.43,1.43,0,0,1,1,.58,1.63,1.63,0,0,1,.32.92v.43q0,.21,0,.44a1,1,0,0,0,.05.31l0,.07h-1v-.12l0-.19v-.47a1.45,1.45,0,0,0-.56-1.35,2.51,2.51,0,0,0-1.16-.19h-.82v2.33h-1V37.81Zm1.13.93a2.71,2.71,0,0,0-1.26-.22h-.89v2.14h.94a2.84,2.84,0,0,0,1-.13,1.07,1.07,0,0,0,.22-1.79Z" style="fill:#fff"/></g></g></svg>